# xmcd
#
# Track frame offsets:
#	150
#	21712
#	35252
#	46942
#	58782
#	72100
#	88085
#	100625
#	113590
#	144767
#	158317
#	168835
#	185395
#	203085
#	220610
#	239365
#	252217
#	273217
#
# Disc length: 3840
#
# Revision: 1
# Processed by: cddbd v1.5.1PL0 Copyright (c) Steve Scherf et al.
# Submitted via: ExactAudioCopy v0.90b2
# Normalized: r0:DSETVAR1
#
DISCID=e40efe12
DTITLE=Various Artist - Soul Classics
DYEAR=1900
DGENRE=Soul
TTITLE0=Al Green - Let's Stay Together
TTITLE1=The Four Tops - Reach Out (I'll Be There)
TTITLE2=Wilson Pickett - In The Midnight Hour
TTITLE3=Martha Reeves and The Vandella's - Dancing In The Streets
TTITLE4=Jackie Wilson - I Get The Sweetest Feeling
TTITLE5=Aretha Franklin - Say A Little Prayer
TTITLE6=Isley Bros - This Old Heart Of Mine
TTITLE7=Smokey Robinson and The Miracles - The Tracks Of My Tears
TTITLE8=The Temptations - Papa Was A Rollin' Stone
TTITLE9=The Supremes - Nathan Jones
TTITLE10=Edwin Starr - Stop Her On Sight (S.O.S)
TTITLE11=Jimmy Helms - Gonna Make You An Offer You Can't Refuse
TTITLE12=The Jackson 5 - I'll Be There
TTITLE13=Dobie Gray - Drift Away
TTITLE14=The Commodores - Easy
TTITLE15=Dionne Warwick - Walk On By
TTITLE16=Billy Paul - Me And Mrs Jones
TTITLE17=The Stylistics - I'm Stone In Love With You
EXTD=
EXTT0=
EXTT1=
EXTT2=
EXTT3=
EXTT4=
EXTT5=
EXTT6=
EXTT7=
EXTT8=
EXTT9=
EXTT10=
EXTT11=
EXTT12=
EXTT13=
EXTT14=
EXTT15=
EXTT16=
EXTT17=
PLAYORDER=
